<svg xmlns="http://www.w3.org/2000/svg" xml:space="preserve" x="0" y="0" style="enable-background:new 0 0 773.5 391.3"
  version="1.1" viewBox="0 0 773.5 391.3">
  <path
    d="M143.6 0h-16.8L32.9 381.3H0v10h78.9v-10H41l26.7-109.5H157l24.8 109.5h-33.5v10h115.3v-10h-27.7L143.6 0zM70.2 261.8l43.9-179.9 40.7 179.9H70.2zM368.5 238.5h-27.4V6.6h27.4V.2h-82.3v6.4h25.1v231.9h-25.1v6.4h82.3zM755.9 241.8 697.4.2h-10.6l-59.5 241.6h-20.9v6.4h50v-6.4h-24.1l17-69.4h56.6l15.7 69.4h-21.2v6.4h73.1v-6.4h-17.6zm-105-75.7 27.8-114 25.7 114h-53.5zM768.9 372.2c-1 3.5-2.5 6.4-4.6 8.8-2 2.4-4.7 4.2-8.1 5.5s-7.6 1.9-12.7 1.9h-16.4v-96.1h12.1v-2.6h-42.1v2.6h12.2v96.1h-12.2v2.6h76.4v-30.4h-2.6c-.4 4.3-1 8.2-2 11.6zM621.8 292.1h12.1v66.4c0 6.9-1 12.6-2.9 16.8-2.1 4.3-4.9 7.4-8.5 9.3-3.7 2-8 2.9-13.1 2.9-4.5 0-8.1-.7-11-2.3-2.8-1.6-5-3.7-6.6-6.4-1.5-2.6-2.5-5.9-3.1-9.6-.6-3.7-.9-7.7-.9-12.2v-65H601v-2.5h-42.6v2.5h12v66.4c0 11.5 2.7 19.7 8.3 24.8 5.6 5.1 14.3 7.6 26.4 7.6 10.7 0 18.5-2.6 23.6-8s7.6-13.5 7.6-24.4V292h12.6v-2.5h-27.1v2.6zM482.6 296.1c-7.5-4.3-16.4-6.5-26.9-6.5v.1h-41.2v2.6h12.2v96.1h-12.2v2.6h41.1c7.5 0 14.3-1.2 20.5-3.7s11.5-6 16-10.5 7.9-9.9 10.3-16.1c2.4-6.2 3.6-13 3.6-20.4 0-9.9-2.1-18.7-6.1-26.3-4-7.6-9.8-13.6-17.3-17.9zm1.5 62.6c-1 5.8-2.7 10.9-5 15.4-2.3 4.4-5.4 8-9.2 10.5s-8.6 3.8-14.2 3.8h-11.2v-96.2h11.2c5.3 0 9.8 1.3 13.6 3.8s6.9 6 9.3 10.5c2.4 4.5 4.2 9.6 5.3 15.4 1.1 5.8 1.7 12 1.7 18.4 0 6.5-.5 12.6-1.5 18.4zM578.7.2h-54.5v6.4h25.9v168.1L473.5.2H413v6.4h23.4v231.9H413v6.4h54.6v-6.4H441V7.6l107.5 240.6h6.3V6.6h23.9zM350.5 340.9c-3.7-1.1-7.6-1.8-11.8-2.1 7-.8 12.6-2.6 16.9-5.4 6.1-3.9 9.1-10.2 9.1-18.8 0-8.8-3.2-15.2-9.6-19.1-6.4-3.9-15-5.9-25.8-5.9H286v2.6h12.1v96.2H286v2.5h46c11.5 0 20.5-2.2 27-6.4s9.7-11.3 9.7-21.2c0-6.1-1.6-11-4.9-14.6-3.3-3.6-7.7-6.2-13.3-7.8zm-22.9-48.7c3.3 0 6.3.9 9.2 2.6 2.9 1.8 5.2 4.4 6.9 7.9s2.6 7.9 2.6 13.3c0 5.3-.9 9.6-2.6 12.7-1.7 3.2-4 5.4-6.9 6.8-2.8 1.4-5.9 2.1-9.2 2.1h-11.7v-45.4h11.7zm18.8 84.2c-1.8 3.9-4.2 6.8-7.2 8.9-3.1 2.1-6.5 3.1-10.2 3.1h-13.1v-48.2H329c3.8 0 7.2.8 10.2 2.3s5.4 3.9 7.2 7.2c1.7 3.2 2.6 7.5 2.6 12.9 0 5.3-.8 9.9-2.6 13.8z" />
</svg>